<svg enable-background="new 0 0 730.7 517.7" viewBox="0 0 730.7 517.7" xmlns="http://www.w3.org/2000/svg"><path d="m75 348.5v23.7h-11.8v-59.6h43.2v10.2h-31.4v15.5h23v10.2z"/><path d="m171.2 342.3c0 18-13.9 30.8-31.2 30.8s-31.2-12.9-31.2-30.8c0-18 13.9-30.8 31.2-30.8s31.2 12.9 31.2 30.8zm-12.3 0c0-11.4-7.6-19.9-18.8-19.9s-18.8 8.5-18.8 19.9 7.6 19.9 18.8 19.9 18.8-8.4 18.8-19.9z"/><path d="m200.4 349.2h-8.4v22.9h-11.8v-59.6h22.4c13 0 20.7 7.8 20.7 18.1 0 5.6-2.3 12.8-11.3 16.4l15.3 25.1h-13.6zm.7-26.5h-9v16.2h9c6.6 0 10.4-3.1 10.4-8.2-.1-5.2-3.9-8-10.4-8z"/><path d="m257.1 359.4-11.7-29.4v42.2h-11.5v-59.6h16.7l13 33.8 13.3-33.8h15.9v59.6h-11.8v-42.2l-11.4 29.4z"/><path d="m300.7 344.6h17.9v9.4h-17.9z"/><path d="m374.4 372.2h-12.8l-5.1-16.3h-18l-4.8 16.3h-12.4l19.3-59.6h14.1zm-26.9-46.9h-.2l-6 20.4h12.2z"/><path d="m376.7 344.6h17.9v9.4h-17.9z"/><path d="m433.2 328.4c-3.7-3.6-8.4-6.1-12.6-6.1-3.9 0-7.5 2-7.5 5.6 0 2.7 1.7 4.9 6.5 7.1l4.9 2.3c9.5 4.4 15.2 9.4 15.2 18.3s-7.6 17.6-20.7 17.6c-9 0-15.8-3.5-21.4-8.9l6.6-8.9c4.4 4.5 10.1 7.1 14.6 7.1 5.1 0 8.3-2.8 8.3-6.5 0-4.1-3.7-6.4-9.4-9l-4.2-2c-8-3.7-13-9.2-13-16.7 0-10.5 9.4-16.8 19.9-16.8 6.9 0 14 3.4 19.7 8.3z"/><path d="m491.2 312.5v10.6h-17.8v49.1h-11.8v-49.1h-17.8v-10.6z"/><path d="m556.3 342.3c0 18-13.9 30.8-31.2 30.8s-31.2-12.9-31.2-30.8c0-18 13.9-30.8 31.2-30.8 17.4 0 31.2 12.9 31.2 30.8zm-12.3 0c0-11.4-7.6-19.9-18.8-19.9s-18.8 8.5-18.8 19.9 7.6 19.9 18.8 19.9 18.8-8.4 18.8-19.9z"/><path d="m585.5 349.2h-8.4v22.9h-11.8v-59.6h22.4c13 0 20.7 7.8 20.7 18.1 0 5.6-2.3 12.8-11.3 16.4l15.3 25.1h-13.6zm.7-26.5h-9v16.2h9c6.6 0 10.4-3.1 10.4-8.2 0-5.2-3.9-8-10.4-8z"/><path d="m609.3 312.5h14.1l14.6 22.7h.4l14.4-22.7h13.6l-22.5 33.5v26.2h-11.8v-25.9z"/><path d="m539.5 286.4h-22.7c0-91.9-74.7-166.6-166.6-166.6s-166.6 74.7-166.6 166.6h-22.7c0-104.4 84.9-189.3 189.3-189.3s189.3 84.9 189.3 189.3z" fill="#fa4358"/><path d="m517.2 286.4h-22.7c0-80.1-65.2-145.2-145.2-145.2s-145.3 65.1-145.3 145.2h-22.7c0-92.6 75.3-168 168-168s167.9 75.3 167.9 168z" fill="#ffc105"/><path d="m496.6 286.3h-22.7c0-68.3-55.5-123.8-123.8-123.8s-123.9 55.5-123.9 123.8h-22.7c0-80.8 65.7-146.5 146.5-146.5s146.6 65.7 146.6 146.5z" fill="#37c3be"/><path d="m338.2 284.8-52.9-13.7v-77.7l55.1 14.2-2.2 8.3-44.4-11.5v60.1l46.6 12z"/><path d="m361.3 284.9h-23.8v-77.4h23.8zm-15.3-8.5h6.8v-60.4h-6.8z"/><path d="m349.4 216c-.7 0-1.4-.2-2.1-.5l-36.6-20.3v6.1c0 2.4-1.9 4.3-4.3 4.3s-4.3-1.9-4.3-4.3v-20.5l49.2 27.3c2.1 1.1 2.8 3.7 1.7 5.8-.7 1.3-2.1 2.1-3.6 2.1z"/><path d="m360.5 284.8-2.1-8.3 46.6-12v-60.1l-44.5 11.5-2.1-8.3 55.1-14.2v77.7z"/><path d="m349.4 216c-1.5 0-2.9-.8-3.7-2.2-1.1-2.1-.4-4.7 1.7-5.8l49.2-27.3v20.5c0 2.4-1.9 4.3-4.3 4.3s-4.3-1.9-4.3-4.3v-6.1l-36.6 20.3c-.6.5-1.3.6-2 .6z"/><path d="m159.9 286.7.1-4.3c1-50 21.2-96.8 56.9-131.8 35.7-35.1 83-54.4 133.1-54.4s97.4 19.3 133.1 54.4c35.7 35 55.9 81.9 56.9 131.8l.1 4.3h-66.7l-.1-4.1c0-1.6-.1-3.1-.2-4.6-4.3-64.6-58.4-115.3-123.3-115.3-32.4 0-63 12.4-86.2 35-23.2 22.5-36.4 52.7-37.3 84.9l-.1 4.1zm190.1-182c-47.9 0-93 18.5-127.2 52-33.1 32.5-52.2 75.5-54.2 121.6h49.2c2-32.9 16-63.5 39.7-86.6 24.8-24.1 57.5-37.4 92.1-37.4 69.3 0 127.2 54.1 131.8 123.3 0 .3 0 .5.1.8h49.8c-2-46.1-21.1-89.1-54.2-121.6-34.1-33.7-79.3-52.1-127.1-52.1z"/><path d="m518.5 284h-8.5c0-88.3-71.8-160.1-160.1-160.1s-160.1 71.8-160.1 160.1h-8.5c0-93 75.7-168.6 168.6-168.6s168.6 75.6 168.6 168.6z"/><path d="m500.7 285.1h-8.5c0-78.5-63.9-142.4-142.4-142.4s-142.4 63.9-142.4 142.4h-8.5c0-83.2 67.7-150.9 150.9-150.9s150.9 67.7 150.9 150.9z"/></svg>